<!-- Generator: Adobe Illustrator 21.0.0, SVG Export Plug-In  -->
<svg version="1.1"
	 xmlns="http://www.w3.org/2000/svg" xmlns:xlink="http://www.w3.org/1999/xlink" xmlns:a="http://ns.adobe.com/AdobeSVGViewerExtensions/3.0/"
	 x="0px" y="0px" width="244.5px" height="59.5px" viewBox="0 0 244.5 59.5" style="enable-background:new 0 0 244.5 59.5;"
	 xml:space="preserve">
<style type="text/css">
	.st0{fill-rule:evenodd;clip-rule:evenodd;fill:#FFFFFF;}
	.st1{fill-rule:evenodd;clip-rule:evenodd;fill:#FFC627;}
	.st2{fill-rule:evenodd;clip-rule:evenodd;fill:#EB0029;}
	.st3{fill:#FFFFFF;}
</style>
<defs>
</defs>
<g>
	<g id="XMLID_23_">
		<path id="XMLID_24_" class="st0" d="M107.3,47.9c0,4.7-3.8,8.5-8.5,8.5H8.5c-4.7,0-8.5-3.8-8.5-8.5V8.5C0,3.8,3.8,0,8.5,0h90.4
			c4.7,0,8.5,3.8,8.5,8.5V47.9z"/>
	</g>
	<g id="XMLID_21_">
		<path id="XMLID_22_" class="st1" d="M98.9,2.5H8.5C5.4,2.5,2.8,5,2.8,8.1h101.7C104.5,5,102,2.5,98.9,2.5z"/>
	</g>
	<g id="XMLID_19_">
		<path id="XMLID_20_" class="st1" d="M8.5,53.2h90.4c3.1,0,5.6-2.5,5.6-5.6H2.8C2.8,50.7,5.3,53.2,8.5,53.2z"/>
	</g>
	<g id="XMLID_12_">
		<path id="XMLID_13_" class="st2" d="M28.3,27.9c0,4.7-3.8,8.5-8.5,8.5c-4.7,0-8.5-3.8-8.5-8.5c0-4.7,3.8-8.5,8.5-8.5
			C24.5,19.4,28.3,23.2,28.3,27.9z M101.7,27.9c0,7.8-6.3,14.1-14.1,14.1c-7.8,0-14.1-6.3-14.1-14.1c0-7.8,6.3-14.1,14.1-14.1
			C95.4,13.8,101.7,20.1,101.7,27.9z M96,27.9c0,4.7-3.8,8.5-8.5,8.5c-4.7,0-8.5-3.8-8.5-8.5c0-4.7,3.8-8.5,8.5-8.5
			C92.2,19.4,96,23.2,96,27.9z M33.9,27.9c0,7.8-6.3,14.1-14.1,14.1C12,42,5.7,35.7,5.7,27.9c0-7.8,6.3-14.1,14.1-14.1
			C27.6,13.8,33.9,20.1,33.9,27.9z M22.8,44.8h-20V11H73c-1.6,0.3-3.1,2.6-3.3,2.8L62,23.5l-3.1-4l-3.5,4.7l3.1,3.9l-4.6,5.8
			l-2.7,3.5c-0.3,0.4-0.5,0.9-0.6,1.4c-0.1,0.9,0.3,1.9,1.1,2.5c0.7,0.6,1.6,0.7,2.5,0.5c0.6-0.2,1.1-0.5,1.5-1l1.5-2l0-0.1l4.9-6.2
			l6.4,8.2c1,1.2,2.7,1.4,4,0.5c1.2-0.9,1.4-2.7,0.5-3.9l-7.3-9.3l9-11.7c4.3-5,8.6-5.4,10.7-5.4h19.3v33.8H34.2
			c1.7-0.2,3.3-2.6,3.5-2.8l7.7-9.7l3.2,4l3.5-4.7l-3.1-3.9l4.6-5.8l2.7-3.5c0.3-0.4,0.5-0.9,0.6-1.4c0.1-0.9-0.3-1.9-1.1-2.5
			c-0.7-0.6-1.6-0.7-2.5-0.5c-0.6,0.2-1.1,0.5-1.5,1l-1.5,2l-0.1,0.1l-4.9,6.2l-6.5-8.2c-1-1.2-2.7-1.4-4-0.5
			c-1.2,1-1.4,2.7-0.5,3.9l7.3,9.3l-8.9,11.7C28.9,43.8,25.1,44.6,22.8,44.8z"/>
	</g>
	<rect id="XMLID_11_" x="124.9" y="2.5" class="st3" width="2.4" height="50.7"/>
	<g id="XMLID_2_">
		<path id="XMLID_8_" class="st3" d="M151.2,11.2h15.1c2.2,0,4.2,0.2,5.9,0.7c1.7,0.5,3.1,1.2,4.1,2.2c1,1,1.7,2.2,2,3.7
			c0.3,1.5,0.2,3.2-0.3,5.2l0,0.1c-0.6,2-1.4,3.8-2.6,5.3c-1.2,1.6-2.6,2.9-4.2,3.9c-1.6,1.1-3.5,1.8-5.5,2.4
			c-2,0.5-4.2,0.8-6.4,0.8h-3.6l-2.5,9.1h-11.2L151.2,11.2z M160.9,27.6c1.4,0,2.7-0.3,3.7-0.9c1.1-0.6,1.7-1.5,2.1-2.8l0-0.1
			c0.3-1.2,0.2-2.1-0.5-2.8c-0.7-0.6-1.7-0.9-3.2-0.9H160l-2.1,7.5H160.9z"/>
		<path id="XMLID_5_" class="st3" d="M191.3,11h11.1l4.8,33.8H195l-0.5-4.5h-11.7l-3,4.5h-12L191.3,11z M193.9,32.3l-0.8-8.2
			l-5.3,8.2H193.9z"/>
		<path id="XMLID_3_" class="st3" d="M214.7,32.9L208,11.2h12.6l2.7,11l8.8-11h12.4l-18.6,21.5l-3.3,12h-11.2L214.7,32.9z"/>
	</g>
	<g>
		<g id="Conekta_1_">
			<g id="Logotipo_1_">
				<path class="st3" d="M189.8,56.7c0.1,0,0.1,0,0.1,0.1l0.4,0.4c-0.2,0.3-0.5,0.5-0.8,0.6c-0.3,0.2-0.7,0.2-1.2,0.2
					c-0.4,0-0.8-0.1-1.1-0.2c-0.3-0.1-0.6-0.3-0.9-0.6c-0.2-0.3-0.4-0.6-0.5-0.9c-0.1-0.3-0.2-0.7-0.2-1.1c0-0.4,0.1-0.8,0.2-1.2
					c0.1-0.3,0.3-0.6,0.6-0.9c0.3-0.3,0.6-0.4,0.9-0.6c0.4-0.1,0.7-0.2,1.2-0.2c0.4,0,0.8,0.1,1.1,0.2c0.3,0.1,0.6,0.3,0.8,0.5
					l-0.4,0.5c0,0,0,0.1-0.1,0.1c0,0-0.1,0-0.1,0c-0.1,0-0.1,0-0.2-0.1c-0.1,0-0.1-0.1-0.2-0.2c-0.1-0.1-0.2-0.1-0.4-0.2
					c-0.1,0-0.3-0.1-0.6-0.1c-0.3,0-0.5,0-0.7,0.1c-0.2,0.1-0.4,0.2-0.6,0.4c-0.2,0.2-0.3,0.4-0.4,0.6c-0.1,0.2-0.1,0.5-0.1,0.8
					c0,0.3,0,0.6,0.1,0.8c0.1,0.2,0.2,0.5,0.4,0.6c0.2,0.2,0.3,0.3,0.5,0.4c0.2,0.1,0.4,0.1,0.7,0.1c0.1,0,0.3,0,0.4,0
					c0.1,0,0.2,0,0.3-0.1c0.1,0,0.2-0.1,0.3-0.1c0.1-0.1,0.2-0.1,0.3-0.2C189.6,56.8,189.6,56.8,189.8,56.7
					C189.7,56.7,189.7,56.7,189.8,56.7z"/>
				<path class="st3" d="M196.5,55.3c0,0.4-0.1,0.8-0.2,1.1c-0.1,0.3-0.3,0.7-0.6,0.9c-0.2,0.3-0.6,0.5-0.9,0.6
					c-0.4,0.1-0.7,0.2-1.2,0.2c-0.4,0-0.8-0.1-1.2-0.2c-0.4-0.1-0.7-0.3-0.9-0.6c-0.3-0.3-0.4-0.6-0.6-0.9c-0.1-0.3-0.2-0.7-0.2-1.1
					c0-0.4,0.1-0.8,0.2-1.1c0.1-0.3,0.3-0.7,0.6-0.9c0.3-0.3,0.6-0.5,0.9-0.6c0.4-0.1,0.7-0.2,1.2-0.2c0.4,0,0.8,0.1,1.2,0.2
					c0.4,0.1,0.7,0.3,0.9,0.6c0.2,0.3,0.4,0.6,0.6,0.9C196.5,54.5,196.5,54.8,196.5,55.3z M195.5,55.3c0-0.3,0-0.6-0.1-0.8
					c-0.1-0.2-0.2-0.4-0.4-0.6c-0.2-0.2-0.3-0.3-0.6-0.4c-0.2-0.1-0.5-0.1-0.7-0.1c-0.3,0-0.5,0-0.7,0.1c-0.2,0.1-0.4,0.2-0.6,0.4
					c-0.2,0.2-0.3,0.4-0.4,0.6c-0.1,0.2-0.1,0.5-0.1,0.8c0,0.3,0,0.6,0.1,0.8c0.1,0.2,0.2,0.4,0.4,0.6c0.2,0.2,0.3,0.3,0.6,0.4
					c0.2,0.1,0.5,0.1,0.7,0.1c0.3,0,0.5,0,0.7-0.1c0.2-0.1,0.4-0.2,0.6-0.4c0.2-0.2,0.3-0.4,0.4-0.6
					C195.4,55.8,195.5,55.6,195.5,55.3z"/>
				<path class="st3" d="M198,52.5C198.1,52.5,198.1,52.5,198,52.5c0.1,0,0.1,0.1,0.2,0.1c0,0,0,0.1,0.1,0.1l3,3.7
					c0-0.1,0-0.2,0-0.3c0-0.1,0-0.2,0-0.2v-3.4h0.9V58h-0.5c-0.1,0-0.2,0-0.2,0c-0.1,0-0.1-0.1-0.2-0.1l-3-3.7c0,0.1,0,0.2,0,0.2
					c0,0.1,0,0.2,0,0.2V58h-0.9v-5.6h0.6C198,52.5,198,52.5,198,52.5z"/>
				<path class="st3" d="M206.8,52.5v0.8h-2.5v1.5h2v0.8h-2v1.6h2.5V58h-3.6v-5.6H206.8z"/>
				<path class="st3" d="M208.8,54.8h0.2c0.1,0,0.2,0,0.2,0c0.1,0,0.1-0.1,0.2-0.1l1.6-2c0.1-0.1,0.1-0.1,0.2-0.2c0.1,0,0.2,0,0.3,0
					h0.9l-1.9,2.3c-0.1,0.1-0.1,0.1-0.2,0.2c-0.1,0-0.1,0.1-0.2,0.1c0.1,0,0.2,0.1,0.2,0.1c0.1,0.1,0.1,0.1,0.2,0.2l2,2.6h-0.9
					c-0.1,0-0.2,0-0.3-0.1c-0.1,0-0.1-0.1-0.2-0.2l-1.6-2.1c-0.1-0.1-0.1-0.1-0.2-0.1c-0.1,0-0.2,0-0.3,0h-0.3V58h-1.1v-5.6h1.1
					V54.8z"/>
				<path class="st3" d="M217.5,52.5l0,0.9h-2.1V58h-1.1v-4.7h-1.8l0.7-0.9H217.5z"/>
				<path class="st3" d="M222,58h-0.8c-0.1,0-0.2,0-0.2-0.1c-0.1,0-0.1-0.1-0.1-0.2l-0.4-1.1h-2.3l-0.4,1.1c0,0.1-0.1,0.1-0.1,0.2
					c-0.1,0-0.1,0.1-0.2,0.1h-0.8l2.2-5.6h1.1L222,58z M218.4,55.9h1.8l-0.7-1.9c0-0.1-0.1-0.2-0.1-0.3c0-0.1-0.1-0.2-0.1-0.4
					c0,0.1-0.1,0.3-0.1,0.4c0,0.1-0.1,0.2-0.1,0.3L218.4,55.9z"/>
			</g>
			<g id="Símbolo_1_">
				<g>
					<polygon class="st3" points="226.7,57.8 224.8,55.3 226.7,52.7 227.9,54.4 227.3,55.3 227.9,56.1 					"/>
				</g>
				<polygon class="st3" points="228.3,59.5 231.5,55.3 228.3,51 225.9,51 229,55.3 225.9,59.5 				"/>
			</g>
		</g>
		<g>
			<path class="st3" d="M142,59.2l0.6-5.2h0.5c0.1,0,0.2,0,0.2,0.1c0.1,0,0.1,0.1,0.1,0.2c0,0,0,0,0,0.1s0,0.1,0,0.2
				c0,0.1,0,0.2,0,0.4c0.2-0.3,0.4-0.5,0.6-0.7c0.2-0.2,0.5-0.2,0.7-0.2c0.2,0,0.3,0,0.4,0.1c0.1,0.1,0.2,0.1,0.3,0.3
				c0.1,0.1,0.2,0.3,0.2,0.5c0.1,0.2,0.1,0.4,0.1,0.6c0,0.2,0,0.4-0.1,0.6c0,0.2-0.1,0.4-0.2,0.6c-0.1,0.2-0.2,0.4-0.3,0.5
				c-0.1,0.2-0.2,0.3-0.4,0.4c-0.1,0.1-0.3,0.2-0.5,0.3c-0.2,0.1-0.3,0.1-0.5,0.1c-0.2,0-0.3,0-0.5-0.1c-0.1-0.1-0.3-0.1-0.4-0.3
				l-0.2,1.6H142z M144.4,54.7c-0.1,0-0.2,0-0.3,0.1c-0.1,0.1-0.2,0.2-0.3,0.3c-0.1,0.1-0.2,0.3-0.3,0.4c-0.1,0.2-0.2,0.3-0.2,0.5
				l-0.1,0.9c0.1,0.1,0.2,0.2,0.3,0.2c0.1,0,0.2,0.1,0.3,0.1c0.2,0,0.3-0.1,0.5-0.2c0.1-0.1,0.3-0.2,0.4-0.4
				c0.1-0.2,0.2-0.4,0.2-0.6c0.1-0.2,0.1-0.4,0.1-0.6c0-0.3,0-0.5-0.1-0.6C144.7,54.8,144.6,54.7,144.4,54.7z"/>
			<path class="st3" d="M148,58c-0.2,0-0.4,0-0.6-0.1s-0.3-0.2-0.5-0.3s-0.2-0.3-0.3-0.5c-0.1-0.2-0.1-0.4-0.1-0.7
				c0-0.3,0.1-0.7,0.2-0.9c0.1-0.3,0.3-0.5,0.4-0.8s0.4-0.4,0.7-0.5c0.2-0.1,0.5-0.2,0.8-0.2c0.2,0,0.4,0,0.6,0.1
				c0.2,0.1,0.3,0.2,0.5,0.3c0.1,0.1,0.2,0.3,0.3,0.5c0.1,0.2,0.1,0.4,0.1,0.7c0,0.3-0.1,0.6-0.2,0.9c-0.1,0.3-0.3,0.5-0.4,0.8
				c-0.2,0.2-0.4,0.4-0.7,0.5C148.6,57.9,148.3,58,148,58z M148.1,57.3c0.2,0,0.3,0,0.4-0.1c0.1-0.1,0.2-0.2,0.3-0.4
				c0.1-0.2,0.2-0.3,0.2-0.5c0-0.2,0.1-0.4,0.1-0.6c0-0.3-0.1-0.5-0.2-0.7c-0.1-0.1-0.3-0.2-0.5-0.2c-0.2,0-0.3,0-0.4,0.1
				c-0.1,0.1-0.2,0.2-0.3,0.4c-0.1,0.2-0.2,0.3-0.2,0.5c0,0.2-0.1,0.4-0.1,0.6c0,0.3,0.1,0.5,0.2,0.7
				C147.7,57.2,147.9,57.3,148.1,57.3z"/>
			<path class="st3" d="M150.9,54h0.7c0.1,0,0.1,0,0.2,0c0,0,0.1,0.1,0.1,0.1l0.2,2.1c0,0.1,0,0.2,0,0.3c0,0.1,0,0.2,0,0.3
				c0-0.1,0.1-0.2,0.1-0.3c0-0.1,0.1-0.2,0.1-0.3l0.8-2.1c0-0.1,0.1-0.1,0.1-0.1c0,0,0.1,0,0.2,0h0.4c0.1,0,0.1,0,0.2,0
				s0.1,0.1,0.1,0.1l0.3,2.1c0,0.1,0,0.2,0,0.3c0,0.1,0,0.2,0,0.3c0-0.1,0.1-0.2,0.1-0.3c0-0.1,0.1-0.2,0.1-0.3l0.8-2.1
				c0-0.1,0-0.1,0.1-0.1c0,0,0.1,0,0.2,0h0.7l-1.6,3.9H154c-0.1,0-0.1-0.1-0.1-0.2l-0.4-2.2c0-0.1,0-0.2,0-0.3c0,0.1,0,0.1-0.1,0.1
				c0,0,0,0.1-0.1,0.1l-0.9,2.2c0,0.1-0.1,0.2-0.2,0.2h-0.7L150.9,54z"/>
			<path class="st3" d="M160,54.9c0,0.2,0,0.3-0.1,0.5c-0.1,0.1-0.2,0.3-0.4,0.4c-0.2,0.1-0.4,0.2-0.7,0.3c-0.3,0.1-0.7,0.1-1.2,0.2
				v0c0,0.6,0.3,0.9,0.8,0.9c0.1,0,0.2,0,0.3,0c0.1,0,0.2,0,0.2-0.1c0.1,0,0.1-0.1,0.2-0.1c0.1,0,0.1-0.1,0.1-0.1
				c0,0,0.1-0.1,0.1-0.1c0,0,0.1,0,0.1,0c0,0,0.1,0,0.1,0c0,0,0.1,0,0.1,0.1l0.2,0.3c-0.1,0.1-0.3,0.3-0.4,0.3
				c-0.1,0.1-0.3,0.2-0.4,0.2c-0.1,0.1-0.3,0.1-0.4,0.1c-0.1,0-0.3,0-0.5,0c-0.2,0-0.4,0-0.6-0.1s-0.3-0.2-0.5-0.3
				c-0.1-0.1-0.2-0.3-0.3-0.5c-0.1-0.2-0.1-0.4-0.1-0.7c0-0.2,0-0.4,0.1-0.6c0-0.2,0.1-0.4,0.2-0.6c0.1-0.2,0.2-0.3,0.3-0.5
				c0.1-0.1,0.3-0.3,0.4-0.4c0.2-0.1,0.3-0.2,0.5-0.3c0.2-0.1,0.4-0.1,0.6-0.1c0.2,0,0.4,0,0.5,0.1c0.2,0.1,0.3,0.1,0.4,0.2
				c0.1,0.1,0.2,0.2,0.2,0.3C160,54.7,160,54.8,160,54.9z M158.7,54.6c-0.1,0-0.2,0-0.4,0.1c-0.1,0.1-0.2,0.1-0.3,0.2
				c-0.1,0.1-0.2,0.2-0.2,0.3c-0.1,0.1-0.1,0.3-0.2,0.4c0.3,0,0.6-0.1,0.8-0.1c0.2-0.1,0.3-0.1,0.4-0.2c0.1-0.1,0.2-0.1,0.2-0.2
				c0-0.1,0.1-0.1,0.1-0.2c0,0,0-0.1,0-0.1c0,0,0-0.1-0.1-0.1c0,0-0.1-0.1-0.1-0.1C158.9,54.6,158.8,54.6,158.7,54.6z"/>
			<path class="st3" d="M160.7,57.9l0.5-3.9h0.5c0.1,0,0.2,0,0.2,0.1c0.1,0,0.1,0.1,0.1,0.2c0,0,0,0,0,0.1c0,0,0,0.1,0,0.2
				s0,0.2,0,0.4c0.2-0.3,0.3-0.5,0.5-0.7c0.2-0.2,0.4-0.3,0.6-0.3c0.1,0,0.2,0,0.3,0.1l-0.2,0.9c-0.1-0.1-0.2-0.1-0.4-0.1
				c-0.2,0-0.4,0.1-0.6,0.3c-0.2,0.2-0.3,0.6-0.4,1l-0.2,1.7H160.7z"/>
			<path class="st3" d="M167,54.9c0,0.2,0,0.3-0.1,0.5c-0.1,0.1-0.2,0.3-0.4,0.4s-0.4,0.2-0.7,0.3c-0.3,0.1-0.7,0.1-1.2,0.2v0
				c0,0.6,0.3,0.9,0.8,0.9c0.1,0,0.2,0,0.3,0c0.1,0,0.2,0,0.2-0.1c0.1,0,0.1-0.1,0.2-0.1c0.1,0,0.1-0.1,0.1-0.1c0,0,0.1-0.1,0.1-0.1
				c0,0,0.1,0,0.1,0c0,0,0.1,0,0.1,0c0,0,0.1,0,0.1,0.1l0.2,0.3c-0.1,0.1-0.3,0.3-0.4,0.3c-0.1,0.1-0.3,0.2-0.4,0.2
				c-0.1,0.1-0.3,0.1-0.4,0.1c-0.1,0-0.3,0-0.5,0c-0.2,0-0.4,0-0.6-0.1s-0.3-0.2-0.5-0.3c-0.1-0.1-0.2-0.3-0.3-0.5
				c-0.1-0.2-0.1-0.4-0.1-0.7c0-0.2,0-0.4,0.1-0.6c0-0.2,0.1-0.4,0.2-0.6c0.1-0.2,0.2-0.3,0.3-0.5c0.1-0.1,0.3-0.3,0.4-0.4
				c0.2-0.1,0.3-0.2,0.5-0.3c0.2-0.1,0.4-0.1,0.6-0.1c0.2,0,0.4,0,0.5,0.1c0.2,0.1,0.3,0.1,0.4,0.2c0.1,0.1,0.2,0.2,0.2,0.3
				C167,54.7,167,54.8,167,54.9z M165.7,54.6c-0.1,0-0.2,0-0.4,0.1c-0.1,0.1-0.2,0.1-0.3,0.2c-0.1,0.1-0.2,0.2-0.2,0.3
				c-0.1,0.1-0.1,0.3-0.2,0.4c0.3,0,0.6-0.1,0.8-0.1c0.2-0.1,0.3-0.1,0.4-0.2c0.1-0.1,0.2-0.1,0.2-0.2c0-0.1,0.1-0.1,0.1-0.2
				c0,0,0-0.1,0-0.1c0,0,0-0.1-0.1-0.1c0,0-0.1-0.1-0.1-0.1C165.8,54.6,165.8,54.6,165.7,54.6z"/>
			<path class="st3" d="M170.4,57.9c-0.1,0-0.2,0-0.2-0.1c0-0.1-0.1-0.1-0.1-0.2l0-0.6c-0.2,0.3-0.4,0.5-0.6,0.7
				c-0.2,0.2-0.5,0.2-0.7,0.2c-0.2,0-0.3,0-0.4-0.1c-0.1-0.1-0.2-0.1-0.3-0.3s-0.2-0.3-0.2-0.5c-0.1-0.2-0.1-0.4-0.1-0.6
				c0-0.2,0-0.4,0.1-0.6c0-0.2,0.1-0.4,0.2-0.6c0.1-0.2,0.2-0.4,0.3-0.5c0.1-0.2,0.2-0.3,0.4-0.4c0.1-0.1,0.3-0.2,0.5-0.3
				c0.2-0.1,0.3-0.1,0.5-0.1c0.2,0,0.3,0,0.5,0.1c0.1,0.1,0.3,0.1,0.4,0.3l0.3-2h0.9l-0.7,5.6H170.4z M169.1,57.2
				c0.1,0,0.2,0,0.3-0.1c0.1-0.1,0.2-0.2,0.3-0.3c0.1-0.1,0.2-0.3,0.3-0.4c0.1-0.2,0.2-0.3,0.2-0.5l0.1-0.9
				c-0.1-0.1-0.2-0.2-0.3-0.2c-0.1,0-0.2-0.1-0.3-0.1c-0.2,0-0.3,0.1-0.5,0.2c-0.1,0.1-0.3,0.2-0.4,0.4c-0.1,0.2-0.2,0.4-0.2,0.6
				c-0.1,0.2-0.1,0.4-0.1,0.6c0,0.3,0,0.5,0.1,0.6C168.8,57.2,168.9,57.2,169.1,57.2z"/>
			<path class="st3" d="M174,57.9l0.7-5.6h0.9l-0.3,2.5c0.2-0.3,0.4-0.5,0.6-0.6c0.2-0.1,0.5-0.2,0.7-0.2c0.2,0,0.3,0,0.4,0.1
				c0.1,0.1,0.2,0.1,0.3,0.3s0.2,0.3,0.2,0.5c0.1,0.2,0.1,0.4,0.1,0.6c0,0.2,0,0.4-0.1,0.6c0,0.2-0.1,0.4-0.2,0.6
				c-0.1,0.2-0.2,0.4-0.3,0.5c-0.1,0.2-0.2,0.3-0.4,0.4c-0.1,0.1-0.3,0.2-0.5,0.3c-0.2,0.1-0.3,0.1-0.5,0.1c-0.2,0-0.4,0-0.5-0.1
				c-0.2-0.1-0.3-0.2-0.4-0.3l0,0.1c0,0.1-0.1,0.2-0.1,0.2c0,0-0.1,0.1-0.2,0.1H174z M176.3,54.7c-0.1,0-0.2,0-0.3,0.1
				c-0.1,0.1-0.2,0.2-0.3,0.3c-0.1,0.1-0.2,0.3-0.3,0.4c-0.1,0.2-0.2,0.3-0.2,0.5L175,57c0.1,0.1,0.2,0.2,0.3,0.2
				c0.1,0,0.2,0.1,0.3,0.1c0.2,0,0.3-0.1,0.5-0.2c0.1-0.1,0.3-0.2,0.4-0.4c0.1-0.2,0.2-0.4,0.2-0.6c0.1-0.2,0.1-0.4,0.1-0.6
				c0-0.3,0-0.5-0.1-0.6C176.5,54.8,176.4,54.7,176.3,54.7z"/>
			<path class="st3" d="M179.6,59c-0.1,0.1-0.2,0.2-0.3,0.2h-0.7l0.9-1.6l-1-3.6h0.8c0.1,0,0.1,0,0.2,0.1c0,0,0.1,0.1,0.1,0.1l0.5,2
				c0,0.1,0,0.1,0,0.2c0,0.1,0,0.1,0,0.2c0-0.1,0.1-0.1,0.1-0.2c0-0.1,0.1-0.1,0.1-0.2l1-2c0-0.1,0.1-0.1,0.1-0.1c0,0,0.1,0,0.1,0
				h0.8L179.6,59z"/>
		</g>
	</g>
</g>
</svg>
